<svg width="32" height="32" viewBox="0 0 32 32" fill="none" xmlns="http://www.w3.org/2000/svg">
<g clip-path="url(#clip0_3_1128)">
<path d="M32 16C32 24.8365 24.8365 32 16 32C7.1635 32 0 24.8365 0 16C0 16.0037 16 0.0018125 16 0C24.8365 0 32 7.1635 32 16Z" fill="#0052B4"/>
<path d="M16 0C15.9991 0 15.9982 4.6875e-05 15.9973 4.6875e-05L16 0Z" fill="#F0F0F0"/>
<path d="M15.9572 16H16C16 15.9855 16 15.9716 16 15.9572C15.9858 15.9715 15.9715 15.9857 15.9572 16Z" fill="#F0F0F0"/>
<path d="M16 8.34786C16 5.53254 16 3.68773 16 4.57764e-05H15.9973C7.162 0.00148328 0 7.16429 0 16H8.34781V11.2992L13.0486 16H15.9572C15.9716 15.9857 15.9858 15.9715 16.0001 15.9572C16.0001 14.8792 16.0001 13.9174 16.0001 13.0487L11.2992 8.34786H16Z" fill="#F0F0F0"/>
<path d="M8.09466 2.08694C5.59223 3.51188 3.51185 5.59226 2.08691 8.09469V16H6.26085V6.26094V6.26088H16C16 4.94444 16 3.69032 16 2.08694H8.09466Z" fill="#D80027"/>
<path d="M16 14.0324L10.3154 8.34794H8.34784C8.34784 8.34788 8.34784 8.34794 8.34784 8.34794L15.9999 16H16C16 16 16 14.6434 16 14.0324Z" fill="#D80027"/>
<path d="M9.64966 18.7826L10.5278 20.6187L12.5107 20.1604L11.6227 21.9918L13.2173 23.2564L11.2319 23.7039L11.2375 25.7391L9.64966 24.4658L8.06191 25.7391L8.06747 23.7039L6.08197 23.2564L7.67666 21.9918L6.78853 20.1604L8.7716 20.6187L9.64966 18.7826Z" fill="#F0F0F0"/>
<path d="M23.9552 22.2609L24.3943 23.1789L25.3858 22.9498L24.9417 23.8654L25.7391 24.4978L24.7463 24.7215L24.7491 25.7391L23.9552 25.1024L23.1613 25.7391L23.1641 24.7215L22.1714 24.4978L22.9687 23.8654L22.5247 22.9498L23.5161 23.1789L23.9552 22.2609Z" fill="#F0F0F0"/>
<path d="M19.8708 12.5217L20.3098 13.4399L21.3013 13.2106L20.8573 14.1263L21.6546 14.7586L20.6619 14.9824L20.6646 16L19.8708 15.3633L19.0769 16L19.0796 14.9824L18.0869 14.7586L18.8842 14.1263L18.4402 13.2106L19.4317 13.4399L19.8708 12.5217Z" fill="#F0F0F0"/>
<path d="M23.9552 6.9565L24.3943 7.87462L25.3858 7.64543L24.9418 8.56112L25.739 9.19337L24.7463 9.41718L24.7491 10.4348L23.9552 9.79812L23.1613 10.4348L23.1641 9.41718L22.1714 9.19337L22.9686 8.56112L22.5247 7.64543L23.5161 7.87462L23.9552 6.9565Z" fill="#F0F0F0"/>
<path d="M27.523 11.1304L27.962 12.0486L28.9535 11.8193L28.5095 12.735L29.3068 13.3673L28.314 13.5911L28.3168 14.6087L27.523 13.9721L26.7291 14.6087L26.7318 13.5911L25.7391 13.3673L26.5364 12.735L26.0924 11.8193L27.0838 12.0486L27.523 11.1304Z" fill="#F0F0F0"/>
<path d="M24.9718 16L25.3172 17.0629H26.4348L25.5306 17.7198L25.876 18.7826L24.9718 18.1257L24.0677 18.7826L24.413 17.7198L23.5089 17.0629H24.6265L24.9718 16Z" fill="#F0F0F0"/>
</g>
<defs>
<clipPath id="clip0_3_1128">
<rect width="32" height="32" fill="white"/>
</clipPath>
</defs>
</svg>
