<svg width="32" height="32" viewBox="0 0 32 32" fill="none" xmlns="http://www.w3.org/2000/svg">
<g clip-path="url(#clip0_3_511)">
<path d="M16 32C24.8366 32 32 24.8366 32 16C32 7.16344 24.8366 0 16 0C7.16344 0 0 7.16344 0 16C0 24.8366 7.16344 32 16 32Z" fill="#0052B4"/>
<path d="M16 6.26087L16.5181 7.85518H18.1944L16.8382 8.8405L17.3562 10.4348L16 9.44943L14.6438 10.4348L15.1619 8.8405L13.8057 7.85518H15.482L16 6.26087Z" fill="#FFDA44"/>
<path d="M9.11334 9.11337L10.6071 9.87437L11.7924 8.68912L11.5301 10.3447L13.0238 11.1058L11.3681 11.3681L11.1058 13.0238L10.3448 11.5301L8.68915 11.7924L9.87446 10.6071L9.11334 9.11337Z" fill="#FFDA44"/>
<path d="M6.26093 16L7.85524 15.4819V13.8056L8.84049 15.1619L10.4349 14.6438L9.44942 16L10.4349 17.3562L8.84049 16.8382L7.85524 18.1944V16.5181L6.26093 16Z" fill="#FFDA44"/>
<path d="M9.11334 22.8866L9.8744 21.3929L8.68915 20.2076L10.3448 20.4699L11.1058 18.9762L11.3681 20.6319L13.0237 20.8942L11.5302 21.6552L11.7924 23.3109L10.6071 22.1256L9.11334 22.8866Z" fill="#FFDA44"/>
<path d="M16 25.7391L15.4819 24.1448H13.8057L15.1619 23.1595L14.6438 21.5653L16 22.5506L17.3562 21.5653L16.8382 23.1595L18.1944 24.1448H16.518L16 25.7391Z" fill="#FFDA44"/>
<path d="M22.8867 22.8866L21.393 22.1256L20.2076 23.3109L20.4699 21.6552L18.9764 20.8942L20.632 20.6319L20.8943 18.9762L21.6553 20.4699L23.3109 20.2076L22.1256 21.393L22.8867 22.8866Z" fill="#FFDA44"/>
<path d="M25.7391 16L24.1448 16.5181V18.1944L23.1595 16.8381L21.5653 17.3562L22.5506 16L21.5653 14.6438L23.1596 15.1619L24.1448 13.8056V15.482L25.7391 16Z" fill="#FFDA44"/>
<path d="M22.8867 9.11337L22.1256 10.6071L23.3109 11.7924L21.6552 11.5301L20.8943 13.0237L20.632 11.3681L18.9764 11.1057L20.4699 10.3447L20.2076 8.68918L21.3931 9.87443L22.8867 9.11337Z" fill="#FFDA44"/>
</g>
<defs>
<clipPath id="clip0_3_511">
<rect width="32" height="32" fill="white"/>
</clipPath>
</defs>
</svg>
