<svg width="32" height="32" viewBox="0 0 32 32" fill="none" xmlns="http://www.w3.org/2000/svg">
<g clip-path="url(#clip0_5_442)">
<path d="M16 32C24.8366 32 32 24.8366 32 16C32 7.16344 24.8366 0 16 0C7.16344 0 0 7.16344 0 16C0 24.8366 7.16344 32 16 32Z" fill="#F0F0F0"/>
<path d="M21.5652 16C21.5652 17.3913 19.0736 20.8696 16 20.8696C12.9264 20.8696 10.4348 17.3913 10.4348 16C10.4348 12.9264 12.9264 10.4348 16 10.4348C19.0736 10.4348 21.5652 12.9264 21.5652 16Z" fill="#D80027"/>
<path d="M21.5652 16C21.5652 19.0736 19.0736 21.5652 16 21.5652C12.9264 21.5652 10.4348 19.0736 10.4348 16" fill="#0052B4"/>
<path d="M21.8984 20.9192L23.3739 19.4437L24.3576 20.4274L22.8821 21.9028L21.8984 20.9192Z" fill="black"/>
<path d="M19.4386 23.3784L20.9141 21.903L21.8977 22.8866L20.4223 24.3621L19.4386 23.3784Z" fill="black"/>
<path d="M24.8496 23.87L26.3251 22.3945L27.3087 23.3782L25.8333 24.8537L24.8496 23.87Z" fill="black"/>
<path d="M22.3898 26.3296L23.8653 24.8541L24.849 25.8378L23.3735 27.3132L22.3898 26.3296Z" fill="black"/>
<path d="M23.3739 22.3948L24.8494 20.9193L25.833 21.903L24.3576 23.3784L23.3739 22.3948Z" fill="black"/>
<path d="M20.9148 24.8539L22.3903 23.3784L23.3739 24.3621L21.8985 25.8375L20.9148 24.8539Z" fill="black"/>
<path d="M24.8561 11.0835L20.9215 7.14891L21.9051 6.16525L25.8397 10.0998L24.8561 11.0835Z" fill="black"/>
<path d="M20.9208 10.1002L19.4453 8.62476L20.4289 7.64114L21.9044 9.11661L20.9208 10.1002Z" fill="black"/>
<path d="M23.3799 12.5599L21.9044 11.0845L22.888 10.1009L24.3635 11.5763L23.3799 12.5599Z" fill="black"/>
<path d="M23.8714 7.14868L22.3959 5.67322L23.3796 4.68956L24.8551 6.16502L23.8714 7.14868Z" fill="black"/>
<path d="M26.3319 9.60876L24.8564 8.1333L25.8401 7.14964L27.3156 8.62511L26.3319 9.60876Z" fill="black"/>
<path d="M5.67218 22.392L9.60677 26.3266L8.62311 27.3102L4.68852 23.3756L5.67218 22.392Z" fill="black"/>
<path d="M9.60651 23.3749L11.082 24.8503L10.0984 25.834L8.62289 24.3585L9.60651 23.3749Z" fill="black"/>
<path d="M7.14722 20.9163L8.62268 22.3917L7.63902 23.3754L6.16356 21.8999L7.14722 20.9163Z" fill="black"/>
<path d="M8.62286 19.4403L12.5575 23.3749L11.5738 24.3586L7.63921 20.424L8.62286 19.4403Z" fill="black"/>
<path d="M9.60632 5.67017L5.67174 9.60475L4.68808 8.6211L8.62267 4.68651L9.60632 5.67017Z" fill="black"/>
<path d="M11.0818 7.14551L7.1472 11.0801L6.16354 10.0964L10.0981 6.16185L11.0818 7.14551Z" fill="black"/>
<path d="M12.5587 8.62195L8.62407 12.5565L7.64045 11.5729L11.575 7.63833L12.5587 8.62195Z" fill="black"/>
</g>
<defs>
<clipPath id="clip0_5_442">
<rect width="32" height="32" fill="white"/>
</clipPath>
</defs>
</svg>
