<svg xmlns="http://www.w3.org/2000/svg" xmlns:xlink="http://www.w3.org/1999/xlink" width="2000" zoomAndPan="magnify" viewBox="0 0 1500 1499.999933" height="2000" preserveAspectRatio="xMidYMid meet" version="1.0"><defs><clipPath id="8bbcec7320"><path d="M 0 0 L 1500 0 L 1500 1500 L 0 1500 Z M 0 0 " clip-rule="nonzero"/></clipPath><clipPath id="1d7fd2abe3"><rect x="0" width="1500" y="0" height="1500"/></clipPath><clipPath id="52e40f4f33"><path d="M 392 401 L 1099 401 L 1099 1108 L 392 1108 Z M 392 401 " clip-rule="nonzero"/></clipPath><clipPath id="63b8d2b2c1"><path d="M 150 749.449219 L 749.273438 150.175781 L 1349.609375 750.511719 L 750.335938 1349.78125 Z M 150 749.449219 " clip-rule="nonzero"/></clipPath><clipPath id="d1e48e9178"><path d="M 150 749.449219 L 749.273438 150.175781 L 1349.609375 750.511719 L 750.335938 1349.78125 Z M 150 749.449219 " clip-rule="nonzero"/></clipPath><clipPath id="50fa29ebb6"><path d="M 150 749.449219 L 749.273438 150.175781 L 1349.609375 750.511719 L 750.335938 1349.78125 Z M 150 749.449219 " clip-rule="nonzero"/></clipPath></defs><rect x="-150" width="1800" fill="#ffffff" y="-149.999993" height="1799.99992" fill-opacity="1"/><rect x="-150" width="1800" fill="#ffffff" y="-149.999993" height="1799.99992" fill-opacity="1"/><g transform="matrix(1, 0, 0, 1, 0, 0.000000000000112861)"><g clip-path="url(#1d7fd2abe3)"><g clip-path="url(#8bbcec7320)"><rect x="-330" width="2160" fill="#c1ff72" height="2159.999904" y="-329.999985" fill-opacity="1"/></g></g></g><g clip-path="url(#52e40f4f33)"><g clip-path="url(#63b8d2b2c1)"><g clip-path="url(#d1e48e9178)"><g clip-path="url(#50fa29ebb6)"><path fill="#000000" d="M 1098.507812 499.933594 C 942.398438 785.078125 1029.792969 938.359375 1095.777344 1004.34375 L 992.984375 1107.136719 C 939.882812 1054.039062 848.816406 931.882812 868.84375 733.730469 L 501.757812 1100.816406 L 398.972656 998.027344 L 766.050781 630.945312 C 567.902344 650.972656 445.75 559.902344 392.648438 506.800781 L 495.441406 404.007812 C 561.433594 470 714.714844 557.394531 999.84375 401.285156 Z M 1098.507812 499.933594 " fill-opacity="1" fill-rule="nonzero"/></g></g></g></g></svg>
